<svg id="Capa_1" data-name="Capa 1" xmlns="http://www.w3.org/2000/svg" viewBox="0 0 16 16"><defs><style>.cls-1{fill:#fff;}.cls-2{fill:#393a36;}.cls-3{fill:#f9b9c3;}</style></defs><rect class="cls-1" x="-622" y="-348" width="3154" height="581"/><path d="M2531.5-347.5v580h-3153v-580h3153m1-1h-3155v582h3155v-582Z"/><rect class="cls-1" width="16" height="16" rx="3"/><path class="cls-2" d="M6.55,14.89a.13.13,0,0,1,.13.12.13.13,0,0,1-.26,0,.13.13,0,0,1,.13-.12m0-.36a.49.49,0,0,0,0,1,.49.49,0,1,0,0-1Z"/><path class="cls-2" d="M9.75,14.89a.13.13,0,0,1,.13.12.13.13,0,0,1-.13.13A.12.12,0,0,1,9.63,15a.12.12,0,0,1,.12-.12m0-.36a.49.49,0,1,0,.49.48.49.49,0,0,0-.49-.48Z"/><path class="cls-2" d="M7.54,6.57H6.82V2A1.33,1.33,0,0,1,9.48,2V6.49H8.76V2A.61.61,0,1,0,7.54,2Z"/><path class="cls-3" d="M10,5.89H6.34A1.54,1.54,0,0,0,4.8,7.43v5.76a1.53,1.53,0,0,0,1.54,1.53H10a1.53,1.53,0,0,0,1.53-1.53V7.43A1.54,1.54,0,0,0,10,5.89ZM7,13.46H6.5V8H7Zm1.45,0H8V8h.48Zm1.46,0H9.41V8H9.9Z"/></svg>